<svg width="911" height="206" viewBox="0 0 911 206" fill="none" xmlns="http://www.w3.org/2000/svg">
<g clip-path="url(#clip0_13_524)">
<path d="M11.5241 10.663C14.8088 10.663 17.4746 13.2998 17.4746 16.5487C17.4746 19.7976 14.8088 22.4344 11.5241 22.4344C8.23952 22.4344 5.57373 19.7976 5.57373 16.5487C5.57373 13.2998 8.23952 10.663 11.5241 10.663Z" fill="white"/>
<path d="M1.99561 2.02594C26.6474 2.3062 25.2306 -3.01896 24.9471 42.9457" stroke="white" stroke-width="4" stroke-linecap="round"/>
<path d="M1.99561 82.748C26.6474 82.4677 25.2306 87.7929 24.9471 41.8282" stroke="white" stroke-width="4" stroke-linecap="round"/>
<path d="M38.5322 16.5471C63.4716 14.6199 83.3454 2.8627 98.1532 5.56079C112.961 8.2589 152.299 24.062 160.483 33.3127C168.666 42.5633 169.465 63.3772 135.952 47.1887C102.44 31 119.196 35.0645 78.6692 34.2937" stroke="white" stroke-width="4" stroke-linecap="round"/>
<path d="M101.884 44.0942C101.884 44.0942 97.3871 54.5223 85.307 54.137C73.227 53.7515 62.7055 61.8245 56.8604 64.9081C51.0151 67.9916 37.5537 66.8354 37.5537 66.8354" stroke="white" stroke-width="4" stroke-linecap="round"/>
<path d="M155.683 194.69C152.398 194.69 149.732 192.053 149.732 188.804C149.732 185.555 152.398 182.918 155.683 182.918C158.967 182.918 161.633 185.555 161.633 188.804C161.633 192.053 158.967 194.69 155.683 194.69Z" fill="white"/>
<path d="M165.211 203.326C140.559 203.047 141.976 208.372 142.26 162.407" stroke="white" stroke-width="4" stroke-linecap="round"/>
<path d="M165.211 122.605C140.559 122.885 141.976 117.56 142.26 163.524" stroke="white" stroke-width="4" stroke-linecap="round"/>
<path d="M128.675 188.805C103.735 190.733 83.8615 202.49 69.0537 199.792C54.2459 197.093 14.9077 181.291 6.72438 172.04C-1.4589 162.789 -2.25773 141.975 31.2547 158.164C64.7672 174.353 48.0111 170.288 88.5377 171.059" stroke="white" stroke-width="4" stroke-linecap="round"/>
<path d="M65.3223 161.258C65.3223 161.258 69.8196 150.83 81.8997 151.216C93.9799 151.601 104.501 143.528 110.346 140.445C116.192 137.361 129.653 138.517 129.653 138.517" stroke="white" stroke-width="4" stroke-linecap="round"/>
<path d="M101.058 74.7627C110.658 74.7627 118.513 83.0731 118.513 93.2291C118.513 121.467 83.6034 135.549 83.6034 136.318C83.6034 135.549 48.6943 121.545 48.6943 93.2291C48.6943 82.9964 56.5489 74.7627 66.1489 74.7627C75.8362 74.7627 83.6034 80.3643 83.6034 90.5972C83.6034 80.3643 91.3707 74.7627 101.058 74.7627Z" fill="white"/>
<path d="M264.669 66.124L251.674 139.578H233.005L237.75 113.053H217.637L212.996 139.578H194.328L207.426 66.124H225.992L220.422 97.1378H240.535L246.104 66.124H264.669ZM287.388 141.006C273.085 141.006 265.935 136.109 265.935 126.315C265.935 124.955 266.072 123.493 266.347 121.928L268.513 109.278C269.682 102.749 272.706 97.7499 277.59 94.2812C282.541 90.7445 289.072 88.9762 297.186 88.9762C311.007 88.9762 317.918 94.1453 317.918 104.483C317.918 105.979 317.779 107.612 317.505 109.38L316.267 116.623H284.81L284.397 118.97C284.258 119.786 284.191 120.534 284.191 121.214C284.191 124.955 286.424 126.825 290.895 126.825C292.545 126.825 293.953 126.315 295.124 125.295C296.292 124.275 296.98 123.085 297.186 121.724L314.308 121.928C312.039 134.647 303.066 141.006 287.388 141.006ZM299.765 110.4C300.039 109.244 300.178 108.19 300.178 107.238C300.178 106.217 299.729 105.197 298.837 104.177C297.942 103.157 296.498 102.647 294.505 102.647C292.579 102.647 290.792 103.293 289.142 104.585C287.559 105.877 286.46 107.816 285.841 110.4H299.765ZM371.834 123.867C371.834 125.635 372.729 126.519 374.516 126.519C376.373 126.519 377.92 126.179 379.157 125.499L378.642 137.027C375.341 139.68 371.628 141.006 367.503 141.006C359.94 141.006 355.745 138.285 354.919 132.844C351.482 138.285 346.428 141.006 339.758 141.006C328.482 141.006 322.843 136.211 322.843 126.621C322.843 124.989 323.015 123.187 323.358 121.214L325.524 109.278C326.625 103.157 329.134 98.2939 333.054 94.6893C337.042 91.0166 342.199 89.1803 348.525 89.1803C354.919 89.1803 359.251 90.6425 361.52 93.5671L362.036 90.5065H377.713L371.938 122.643C371.87 123.051 371.834 123.459 371.834 123.867ZM341.305 118.97C341.168 119.582 341.099 120.432 341.099 121.52C341.099 122.609 341.614 123.697 342.646 124.785C343.677 125.805 345.397 126.315 347.803 126.315C350.278 126.315 352.41 125.363 354.197 123.459L357.292 106.319C356.536 104.619 354.749 103.769 351.928 103.769C346.634 103.769 343.54 106.286 342.646 111.318L341.305 118.97ZM404.691 123.867C404.691 125.635 405.585 126.519 407.372 126.519C409.229 126.519 410.776 126.179 412.014 125.499L411.498 137.027C408.197 139.68 404.484 141.006 400.359 141.006C394.103 141.006 390.045 139.578 388.188 136.721C387.02 134.885 386.435 132.878 386.435 130.702C386.435 128.526 386.574 126.621 386.847 124.989L398.09 62.1452H415.624L404.794 122.643C404.726 123.051 404.691 123.459 404.691 123.867ZM440.516 141.006C432.541 141.006 426.798 139.238 423.292 135.701C420.679 133.117 419.372 129.648 419.372 125.295C419.372 123.867 419.509 122.336 419.785 120.704L426.798 81.2228L445.673 73.4693L442.682 90.5065H471.149L468.57 104.891H440.104L438.041 116.419C437.765 117.712 437.628 118.868 437.628 119.888C437.628 124.173 439.691 126.315 443.817 126.315C446.016 126.315 447.839 125.397 449.283 123.561C450.796 121.724 451.828 119.276 452.377 116.215H469.499C466.611 132.742 456.949 141.006 440.516 141.006ZM528.58 126.519C530.161 126.519 531.571 126.179 532.809 125.499L532.293 137.027C529.062 139.68 525.383 141.006 521.257 141.006C511.905 141.006 507.23 137.129 507.23 129.376C507.23 128.016 507.367 126.553 507.643 124.989L509.912 112.441C510.118 111.216 510.221 109.992 510.221 108.768C510.221 105.503 508.468 103.871 504.961 103.871C501.524 103.871 498.842 105.027 496.916 107.34L491.14 139.578H473.606L487.427 62.1452H504.961L499.082 95.0974C502.865 91.0847 507.609 89.0783 513.315 89.0783C520.26 89.0783 524.764 90.6085 526.827 93.6691C528.271 95.7095 528.993 97.9879 528.993 100.504C528.993 103.021 528.787 105.333 528.374 107.442L525.589 122.643C525.52 123.051 525.486 123.425 525.486 123.765C525.486 125.601 526.517 126.519 528.58 126.519ZM589.473 141.006C579.639 141.006 572.831 138.897 569.051 134.681C566.437 131.688 565.132 127.506 565.132 122.132C565.132 119.82 565.372 117.338 565.854 114.685L570.082 91.2207C573.177 74.0134 584.349 65.4098 603.603 65.4098C611.579 65.4098 617.63 67.1102 621.756 70.5108C625.881 73.8435 627.944 78.4343 627.944 84.2834C627.944 87.0039 627.532 89.7243 626.706 92.4449C625.949 95.0974 625.193 97.0697 624.437 98.362L623.303 100.402H605.047C607.316 97.818 608.451 94.1453 608.451 89.3843C608.451 86.8678 607.796 84.8955 606.491 83.4672C605.184 81.9709 603.258 81.2228 600.715 81.2228C593.769 81.2228 589.643 85.0314 588.338 92.6489L584.728 113.257C584.383 115.025 584.213 116.759 584.213 118.46C584.213 122.949 586.928 125.193 592.361 125.193C598.892 125.193 602.812 121.554 604.119 114.277H622.684L622.168 117.236C619.417 133.082 608.518 141.006 589.473 141.006ZM678.838 123.867C678.838 125.635 679.733 126.519 681.52 126.519C683.376 126.519 684.923 126.179 686.161 125.499L685.645 137.027C682.345 139.68 678.632 141.006 674.506 141.006C666.943 141.006 662.748 138.285 661.923 132.844C658.486 138.285 653.432 141.006 646.761 141.006C635.485 141.006 629.846 136.211 629.846 126.621C629.846 124.989 630.019 123.187 630.362 121.214L632.528 109.278C633.629 103.157 636.138 98.2939 640.057 94.6893C644.046 91.0166 649.203 89.1803 655.528 89.1803C661.923 89.1803 666.255 90.6425 668.524 93.5671L669.04 90.5065H684.717L678.941 122.643C678.874 123.051 678.838 123.459 678.838 123.867ZM648.308 118.97C648.172 119.582 648.102 120.432 648.102 121.52C648.102 122.609 648.618 123.697 649.649 124.785C650.681 125.805 652.4 126.315 654.806 126.315C657.282 126.315 659.414 125.363 661.201 123.459L664.295 106.319C663.54 104.619 661.752 103.769 658.932 103.769C653.638 103.769 650.544 106.286 649.649 111.318L648.308 118.97ZM742.535 100.912C742.535 103.225 742.123 105.469 741.298 107.646C740.54 109.822 739.784 111.42 739.028 112.441L737.894 113.869H722.32C724.037 112.305 724.898 110.366 724.898 108.054C724.898 106.83 724.486 105.843 723.661 105.095C722.903 104.279 721.838 103.871 720.463 103.871C718.125 103.871 716.096 105.027 714.378 107.34L708.602 139.578H691.068L699.835 90.5065H716.131L714.894 97.3418C718.813 91.8328 723.557 89.0783 729.127 89.0783C733.596 89.0783 736.93 90.1324 739.132 92.2409C741.401 94.3493 742.535 97.2398 742.535 100.912ZM766.327 141.006C752.024 141.006 744.874 136.109 744.874 126.315C744.874 124.955 745.011 123.493 745.286 121.928L747.452 109.278C748.621 102.749 751.645 97.7499 756.529 94.2812C761.479 90.7445 768.011 88.9762 776.125 88.9762C789.946 88.9762 796.857 94.1453 796.857 104.483C796.857 105.979 796.718 107.612 796.444 109.38L795.206 116.623H763.749L763.336 118.97C763.197 119.786 763.13 120.534 763.13 121.214C763.13 124.955 765.363 126.825 769.834 126.825C771.484 126.825 772.892 126.315 774.063 125.295C775.231 124.275 775.919 123.085 776.125 121.724L793.247 121.928C790.978 134.647 782.004 141.006 766.327 141.006ZM778.704 110.4C778.978 109.244 779.116 108.19 779.116 107.238C779.116 106.217 778.668 105.197 777.776 104.177C776.881 103.157 775.437 102.647 773.444 102.647C771.518 102.647 769.731 103.293 768.08 104.585C766.498 105.877 765.399 107.816 764.78 110.4H778.704Z" fill="white"/>
</g>
<defs>
<clipPath id="clip0_13_524">
<rect width="960" height="206" fill="white"/>
</clipPath>
</defs>
</svg>
